<?xml version="1.0" encoding="iso-8859-1"?>
<!-- Generator: Adobe Illustrator 19.0.0, SVG Export Plug-In . SVG Version: 6.00 Build 0)  -->
<svg version="1.1" id="Layer_1" xmlns="http://www.w3.org/2000/svg" xmlns:xlink="http://www.w3.org/1999/xlink" x="0px" y="0px"
	 viewBox="0 0 1024 768" style="enable-background:new 0 0 1024 768;" xml:space="preserve">
<path id="XMLID_4_" d="M218.771,314.411l65.199,130.198l-15,29.799l-79.999-159.997H218.771z"/>
<path id="XMLID_6_" d="M383.971,447.608l-26.6,26.8V314.411l26.6,26.399V447.608z"/>
<path id="XMLID_8_" d="M568.369,314.411v159.598v0.199v0.2L435.371,354.811v-40.399l106.398,95.798v-95.798H568.369z"/>
<path id="XMLID_10_" d="M672.569,450.809c-7.2-7.399-13-15.8-17.199-25.6c-4.2-9.8-6.4-19.999-6.4-30.8
	c0-10.999,2.2-21.399,6.4-31.199c4.199-9.6,9.999-18,17.199-25.2c7.4-7.4,15.8-13,25.6-17.2c9.6-4.2,20-6.4,31-6.4
	c10.999,0,21.399,2,30.999,6.2c9.6,4.2,18.2,10,25.6,17.4l-19,18.6c-10.6-10.4-23.199-15.399-37.599-15.399c-7.4,0-14.4,1.4-20.8,4
	c-6.601,2.8-12.2,6.6-17,11.6c-4.8,4.8-8.6,10.4-11.399,16.8c-2.801,6.6-4.2,13.399-4.2,20.799c0,7.4,1.399,14.2,4.2,20.8
	c2.8,6.4,6.6,12,11.6,16.8c4.8,5,10.399,8.8,16.8,11.601c6.6,2.6,13.399,3.999,20.8,3.999l30.999,20.601
	c-9.6,4.199-20,6.199-30.999,6.199c-11,0-21.4-2.2-31-6.399C688.369,463.809,679.97,458.009,672.569,450.809z"/>
<path id="XMLID_12_" d="M869.566,447.608l-26.6,26.8V314.411l26.6,26.399V447.608z"/>
</svg>
